<?xml version="1.0" encoding="UTF-8"?>
<svg id="Layer_1" xmlns="http://www.w3.org/2000/svg" xmlns:serif="http://www.serif.com/" version="1.1" viewBox="0 0 595.28 841.89">
  <!-- Generator: Adobe Illustrator 30.0.0, SVG Export Plug-In . SVG Version: 2.1.1 Build 123)  -->
  <defs>
    <style>
      .st0 {
        fill-rule: evenodd;
      }
    </style>
  </defs>
  <path class="st0" d="M298.77,191.5c13.1-.66,23.86,10.1,23.2,23.2-.57,11.22-9.68,20.33-20.9,20.9-13.1.66-23.86-10.1-23.2-23.2.57-11.22,9.68-20.33,20.9-20.9Z"/>
  <path class="st0" d="M188.85,295.84c13.1-.66,23.86,10.1,23.2,23.2-.57,11.22-9.68,20.33-20.9,20.9-13.1.66-23.86-10.1-23.2-23.2.57-11.22,9.68-20.33,20.9-20.9Z"/>
  <path class="st0" d="M81.85,401.84c13.1-.66,23.86,10.1,23.2,23.2-.57,11.22-9.68,20.33-20.9,20.9-13.1.66-23.86-10.1-23.2-23.2.57-11.22,9.68-20.33,20.9-20.9Z"/>
  <path class="st0" d="M188.85,516.84c13.1-.66,23.86,10.1,23.2,23.2-.57,11.22-9.68,20.33-20.9,20.9-13.1.66-23.86-10.1-23.2-23.2.57-11.22,9.68-20.33,20.9-20.9Z"/>
  <path class="st0" d="M300.85,620.84c13.1-.66,23.86,10.1,23.2,23.2-.57,11.22-9.68,20.33-20.9,20.9-13.1.66-23.86-10.1-23.2-23.2.57-11.22,9.68-20.33,20.9-20.9Z"/>
  <path class="st0" d="M414.85,517.84c13.1-.66,23.86,10.1,23.2,23.2-.57,11.22-9.68,20.33-20.9,20.9-13.1.66-23.86-10.1-23.2-23.2.57-11.22,9.68-20.33,20.9-20.9Z"/>
  <path class="st0" d="M517.85,401.84c13.1-.66,23.86,10.1,23.2,23.2-.57,11.22-9.68,20.33-20.9,20.9-13.1.66-23.86-10.1-23.2-23.2.57-11.22,9.68-20.33,20.9-20.9Z"/>
  <path class="st0" d="M415.85,294.84c13.1-.66,23.86,10.1,23.2,23.2-.57,11.22-9.68,20.33-20.9,20.9-13.1.66-23.86-10.1-23.2-23.2.57-11.22,9.68-20.33,20.9-20.9Z"/>
  <path class="st0" d="M299.85,404.84c13.1-.66,23.86,10.1,23.2,23.2-.57,11.22-9.68,20.33-20.9,20.9-13.1.66-23.86-10.1-23.2-23.2.57-11.22,9.68-20.33,20.9-20.9Z"/>
</svg>
