<?xml version="1.0" encoding="UTF-8"?>
<svg id="Layer_1" xmlns="http://www.w3.org/2000/svg" version="1.1" viewBox="0 0 56.27 15.76">
  <!-- Generator: Adobe Illustrator 30.0.0, SVG Export Plug-In . SVG Version: 2.1.1 Build 123)  -->
  <defs>
    <style>
      .st0 {
        fill: #ed1c24;
      }

      .st1 {
        opacity: .7;
      }

      .st2 {
        fill: #1c75bc;
      }
    </style>
  </defs>
  <g class="st1">
    <path d="M5.23,11.79h-.87L6.49,3.6H1.1l.14-.61h13.63l-.14.61h-7.36l-2.13,8.19Z"/>
    <path d="M10.25,11.79h-.87l1.54-6.85h.87l-1.54,6.85Z"/>
    <path d="M17.09,10.61h.01l4.22-5.67h1.34l-1.54,6.85h-.87l1.33-5.92h-.02l-4.48,5.92h-.47l-1.82-5.92h-.02l-1.33,5.92h-.86l1.54-6.85h1.33l1.65,5.67Z"/>
    <path d="M24.49,11.18h4.68l-.14.61h-5.55l1.54-6.85h5.23l-.14.61h-4.36l-.53,2.38h4.16l-.14.59h-4.16l-.6,2.66Z"/>
    <path d="M31.49,11.79h-.87l1.54-6.85h2.35c.39,0,.74.03,1.07.1s.61.16.86.3.43.31.57.51c.14.21.2.45.2.73,0,.32-.07.59-.2.82-.13.23-.31.43-.55.59-.23.16-.51.28-.82.37-.31.09-.64.15-1,.17l1.92,3.26h-1l-1.82-3.2h-1.54l-.71,3.2ZM32.34,8.01h1.55c.3,0,.59-.02.87-.05.29-.04.55-.1.77-.2.23-.1.42-.23.56-.41.14-.18.22-.41.22-.69,0-.37-.17-.65-.52-.84-.34-.19-.82-.28-1.43-.28h-1.48l-.55,2.48Z"/>
  </g>
  <polygon class="st0" points="49.25 8.1 40.36 8.1 40.36 5.03 53.68 5.03 49.25 8.1"/>
  <polygon class="st2" points="49.25 8.85 40.36 8.85 40.36 11.92 53.68 11.92 49.25 8.85"/>
</svg>